Patient4_TMGait_0pt3_02_left_10_EMG.mot
version=1
nRows=33
nColumns=33
inDegrees=no
endheader
time	1LAddLong	2LGlutMax	3LGlutMed	4LIliopsoas	5LSemiMemb	6LBicFemLong	7LRecFem	8LVastMed	9LVastLat	10LGasMed	11LTibAnt	12lTibPost	13LPeroneusLong	14LSol	15LExtDigLong	16LFlexDigLong	17RAddLong	18RGlutMax	19RGlutMed	20RIliopsoas	21RSemiMemb	22RBicFemLong	23RRecFem	24RVastMed	25RVastLat	26RGasMed	27RTibAnt	28RTibPost	29RPeroneusLong	30RSol	31RExtDigLong	32RFlexDigLong
20.8	0.010529	-0.044403	-0.1564	0.00824	0.005951	-0.00946	-0.012054	-0.012665	0.076752	0.009918	-0.14313	-0.000153	-0.087738	-0.072937	-0.42465	0.003052	0.082855	0.000305	-0.078278	0.60959	-0.13458	-0.21912	0.13718	-0.1535	-0.053711	0.002594	-0.22415	-0.002136	0.21393	-0.027466	-0.006561	0.002747
20.801	0.011749	-0.077209	-0.097046	0.011139	0.011444	-0.015869	-0.07019	0.000153	0.06546	-0.013885	-0.13412	0.000916	-0.033264	-0.12985	-0.40039	0.020142	-0.010986	0.033112	-0.20233	0.35751	0.30792	-0.1564	0.1445	-0.059662	-0.38452	0.003052	-0.049286	-0.007629	0.14679	0.049896	-0.003052	0.001526
20.802	0.006561	-0.022583	0.11429	0.012665	0.005798	-0.012054	-0.006561	0.004425	-0.008545	-0.044556	-0.094147	-0.002289	0.019989	-0.1236	-0.30884	0.003052	-0.10895	0.021973	-0.014801	0.072327	0.24475	-0.077515	0.082245	0.01709	-0.55496	-0.018768	0.10773	-0.006256	-0.053406	0.19257	-0.000458	-0.002289
20.803	-0.000305	-0.022736	0.21408	0.014038	0.00946	-0.001221	0.043335	0.00946	-0.083313	-0.03891	-0.081482	0.000763	0.077515	-0.13107	0.12054	0.00061	-0.10849	-0.003357	0.23804	0.014038	-0.29083	-0.011444	0.011597	0.075989	-0.39185	-0.010681	-0.005798	-0.00473	-0.04837	0.13473	-0.000458	-0.005035
20.804	-0.001373	-0.045929	0.056305	0.013428	0.001831	-0.003357	0.059662	0.005341	-0.050354	-0.046997	-0.13123	0.002136	0.112	-0.23926	0.013733	0.011749	-0.064545	-0.044403	0.3421	-0.000153	-0.29465	0.006104	0.01297	0.10239	-0.24628	-0.002899	-0.072479	-0.010223	0.031586	0.074463	0.000916	-0.008392
20.805	0.005035	-0.060883	0.010529	0.009613	0.011292	-0.002136	0.050812	0.008087	0.012512	-0.072784	-0.11643	0.005035	0.16129	-0.26672	0.039368	-0.004272	-0.023956	-0.028076	0.46677	-0.036926	-0.16464	0.15884	0.050507	0.087585	-0.16281	-0.002747	-0.041656	-0.003052	-0.075226	0.10681	-0.002441	-0.007019
20.806	0.005188	-0.048981	-0.014496	0.018005	0.010529	-0.002289	0.10452	-0.001221	0.053253	-0.059814	-0.056	0.002899	0.050507	-0.15549	0.054932	-0.000916	-0.005188	-0.032043	0.36606	0.012512	-0.20554	0.37872	-0.024567	-0.027924	-0.14267	-0.001221	0.10132	-0.004425	-0.28824	0.103	0.00061	-0.015259
20.807	0.007935	-0.040894	-0.03479	0.009918	0.006866	-0.013885	0.13672	-0.007629	0.024109	-0.055084	-0.055847	0.000763	-0.17349	-0.092773	0.10437	0.013275	0.015564	0.006409	0.11353	-0.007782	-0.26611	0.33295	-0.0737	-0.11032	-0.089569	0.002136	0.084839	-0.002594	-0.42206	0.071106	-0.003662	-0.013275
20.808	0.000916	-0.082245	-0.10208	0.006714	0.006409	-0.001984	0.10803	-0.001678	0.10147	-0.024109	-0.051422	0.002594	-0.098267	-0.085297	0.071411	0	0.016937	-0.016174	0.10056	-0.009308	-0.29343	0.29098	-0.006256	-0.066986	-0.061188	0.006409	-0.2153	-0.005493	-0.21316	0.099335	-0.010529	-0.016327
20.809	0.004425	-0.06424	-0.030518	-0.001984	0.001221	0.015411	0.030975	0.004425	0.1265	0.055237	-0.062408	-0.003052	-0.014648	-0.053711	0.053864	0.019379	0.005341	-0.011749	0.079651	0.000153	-0.092926	0.20645	0.04715	-0.025635	-0.080261	0.014343	-0.50247	0.001678	0.50384	0.090027	-0.000305	-0.012665
20.81	0.006561	-0.03952	0.11704	0.008392	0.013275	-0.009003	-0.053711	0.010681	0.018158	0.095673	-0.016022	0.004425	-0.02121	-0.022583	0.062866	0.001221	-0.012665	-0.003357	0.084839	-0.028534	0.29587	0.003204	0.077362	-0.11856	-0.099182	0.007629	-0.49515	-0.001068	0.5809	0.095673	-0.002289	-0.011292
20.811	0.006104	-0.071106	0.057983	0.014496	0.009308	-0.012512	-0.037537	0.011292	-0.032043	0.10834	0.028687	0.002289	-0.05127	-0.021057	0.046539	-0.003967	-0.004578	0.016785	0.044098	-0.037384	0.42664	-0.075073	0.12711	-0.13062	-0.11215	-0.001221	-0.39688	-0.006561	0.25864	0.13565	-0.002747	-0.007782
20.812	0.00473	-0.037842	0.027618	0.025635	0.009155	-0.016022	-0.020294	0.00351	-0.006866	0.099182	0.081787	0.002441	-0.071259	-0.030975	0.074005	0.00946	-0.005493	0.053711	-0.089417	0.012512	0.17487	0.010529	0.02655	-0.16235	-0.058594	-0.009766	0.13046	-0.001373	-0.029144	0.13367	-0.003662	-0.008087
20.813	-0.000916	-0.07782	0.04425	0.007477	0.007629	-0.011902	0.03418	-0.010986	0.00885	0.071106	0.14175	0.009918	-0.067749	-0.036926	0.088043	0.002136	-0.022125	0.006409	-0.04837	-0.008545	-0.026855	0.053864	-0.08194	-0.13107	-0.041962	-0.010376	0.18494	-0.00061	-0.18875	0.11078	-0.003967	-0.018158
20.814	-0.010834	-0.095978	-0.004425	0.000916	-0.001526	-0.008698	0.033417	-0.0177	-0.003204	0.042267	0.25925	0.006256	-0.059357	-0.016022	0.079041	0.010681	-0.046997	0.048218	-0.014496	-0.10025	0.16998	-0.021362	-0.12802	0.041504	0.020294	-0.005646	-0.005188	0.001831	-0.001678	0.066528	-0.011749	-0.009918
20.815	0.005188	-0.06546	-0.026398	-0.003204	0.003204	-0.005341	-0.007782	-0.006561	0.008392	0.007629	0.27191	0.00824	0.037842	-0.002136	0.095673	0.010071	-0.064545	0.03067	-0.010834	-0.24628	0.336	0.018311	0.028992	0.34058	0.042114	-0.003204	-0.005493	-0.002899	0.13367	0.019531	-0.003967	-0.010681
20.816	-0.002136	-0.085602	-0.028992	0.007477	0.010071	-0.015564	0.036469	-0.014801	0.016174	-0.024719	-0.016785	0.005493	0.11292	0.053558	0.008698	0.009003	-0.057373	0.035248	0.013885	-0.29175	0.19486	0.014191	0.19119	0.23865	-0.004425	-0.00061	0.051422	0.001526	-0.18356	-0.000305	-0.000153	-0.013428
20.817	0.000305	-0.11307	-0.012665	0.010986	0.023499	0.005035	0.0737	-0.005951	0.025177	-0.019226	-0.17181	0.006256	0.071259	0.074921	-0.013885	0.006561	-0.013275	0.066071	0.056305	-0.2272	0.069427	-0.070801	0.11017	0.031586	-0.064087	-0.007935	0.13458	-0.004578	-0.17929	0.05127	0.000305	-0.014954
20.818	0.006256	-0.090637	-0.014343	0.012054	0.023499	-0.007782	0.097504	0.004578	0.042877	-0.007629	-0.13153	0.00061	-0.082855	0.1004	0.058441	0.00885	0.00824	0.072479	0.056458	-0.085602	0.031433	-0.15823	-0.019684	-0.10452	-0.037537	-0.005493	0.13657	-0.000153	0.012665	0.055695	-0.005341	-0.004883
20.819	0.000305	-0.091705	-0.060883	0.016022	0.041351	-0.003357	0.15243	0.000305	0.048218	-0.012817	-0.092773	0.002289	-0.062256	0.09903	0.040588	0.013123	0.003967	0.087738	0.012054	-0.010376	0.075226	-0.10559	0.021667	-0.15091	0.050812	-0.002899	0.13626	-0.001526	0.49301	0.029907	-0.002899	-0.010376
20.82	-0.006256	-0.061188	-0.094757	0.004578	0.012665	-0.007935	0.16983	0.003357	0.05188	-0.000153	-0.097504	0.00824	0.31158	0.12054	0.029907	0.004272	0.009155	0.091248	0.050049	0.17364	0.18494	-0.081482	0.14618	-0.11032	0.032959	-0.015869	0.12802	0.000153	0.21439	0.047913	-0.001526	-0.002136
20.821	0.002441	-0.041199	-0.11169	0.010986	0.008545	-0.010681	0.1326	-0.00473	0.056	-0.00061	-0.075378	0.001831	0.012512	0.071716	0.020905	-0.010681	0.004883	0.055542	0.11017	0.22659	0.18188	-0.045319	0.03479	-0.015106	-0.001526	-0.016174	0.06424	-0.000153	0.13229	0.02121	-0.006714	-0.010071
20.822	0.003357	-0.063019	-0.039063	0.017853	0.00885	-0.005646	0.10391	-0.004425	0.043793	0.002594	-0.042877	0.005188	-0.17181	-0.003357	-0.085449	0.003357	-0.016479	0.067139	0.18265	0.19806	0.12894	-0.034637	-0.032043	-0.03418	-0.083466	-0.006561	-0.1413	0.001526	0.12314	-0.017548	-0.003357	-0.012817
20.823	0.000916	-0.050659	-0.052338	0.017395	0.003204	-0.009613	0.080109	-0.00412	0.046539	0.010071	-0.015411	0.005493	-0.039368	-0.055389	-0.23163	0.00885	0.002594	0.04425	0.033569	0.14908	0.1033	-0.070496	-0.24262	0.000763	-0.067444	-0.010071	-0.023651	0.000305	0.057373	0.014648	-0.001831	-0.00824
20.824	0.006561	-0.086365	-0.022278	0.00824	0.007629	-0.006866	0.047913	-0.000916	0.046387	0.004272	-0.004425	0.005493	0.096283	-0.085297	-0.1001	0.006256	0.050049	0.052032	0.049591	0.14771	0.19699	-0.1149	-0.22354	0.032806	0.019531	-0.011597	0.26367	0.001373	-0.074921	0.042877	0.000305	-0.011902
20.825	0.00824	-0.058136	-0.006866	0.005951	0.008087	-0.004578	0.065002	0.003204	0.033569	0.047302	0.013123	0.020294	0.017395	-0.080872	-0.031128	0.007172	0.090637	0.047913	0.035706	0.12528	0.24185	-0.16159	-0.18951	-0.094452	0.057373	-0.012817	0.68909	0.002289	-0.099487	0.009308	-0.001678	-0.011749
20.826	0.007935	-0.065613	-0.035095	-0.004272	0.007629	0.000305	0.10605	0.000305	0.033875	0.074005	0.025635	0.01236	-0.10147	-0.033722	-0.026398	0.00061	0.13046	0.061493	0.061035	0.076599	0.24002	-0.14191	-0.13641	-0.13138	0.039368	-0.014954	0.77423	0.002441	-0.093231	-0.02182	-0.003357	-0.005646
20.827	-0.004272	-0.059967	-0.061188	0.009308	0.00946	0.009308	0.12497	0.002136	0.02533	0.052795	-0.013733	-0.002289	-0.048828	-0.046539	0.001526	-0.002899	0.11093	0.06424	-0.029449	0.021667	0.26901	-0.11017	-0.050964	0.015411	-0.011597	-0.011292	0.37537	0	-0.023956	-0.050507	-0.001678	-0.011902
20.828	-0.004272	-0.06897	-0.048676	0.02533	0.005188	0.020752	0.1329	-0.004883	0.018311	0.014343	-0.049438	0.005341	-0.006866	-0.040588	-0.010071	0.002441	0.031738	0.005341	-0.047607	-0.026093	0.089264	0.007172	0.025482	0.040894	-0.066986	-0.005035	-0.39642	0.004272	0.11185	-0.076904	-0.00061	-0.006409
20.829	-0.001678	-0.055847	-0.023041	0.033112	0.009003	0.026398	0.10346	0.001984	0.011139	-0.052948	-0.015717	0.001068	-0.002289	-0.079803	0.025177	-0.001526	0.025635	0.036926	0.1091	-0.088959	-0.03479	0.064697	-0.018921	0.065613	-0.088501	-0.001373	-0.81451	0.001678	0.080566	-0.092316	-0.003204	-0.013428
20.83	0.003662	-0.02655	-0.018616	0.005341	0.005493	-0.003204	0.10696	-0.003357	0.004425	-0.072784	0.002441	-0.002899	0.003357	-0.024261	0.046692	0.00885	0.008545	-0.007324	0.2034	-0.15991	0.10178	0.075378	-0.054779	-0.023804	-0.08667	-0.003662	-0.63995	0.003662	0.034637	-0.098419	-0.001984	-0.003662
20.831	0.002594	-0.018005	0.027008	0.000763	0.012207	-0.011749	0.10315	-0.001526	0.001984	-0.062561	0.005035	-0.001068	-0.001831	-0.02121	0.065613	0.009003	-0.018921	0.045319	0.13962	-0.18478	0.20706	0.055847	-0.11566	0.02594	0.009613	0.002441	-0.27603	-0.000153	0.039978	-0.15274	-0.008698	-0.00412
20.832	0.001831	-0.014496	0.038605	0	0.010529	-0.041962	0.099182	-0.002594	0.00885	-0.001373	0.011292	0.001221	0.046844	-0.002441	0.048523	0.007629	-0.054779	0.059357	0.051117	-0.11917	0.069427	0.06485	-0.10269	-0.019531	0.077362	-0.001221	-0.098114	0.00061	0.057526	-0.16464	-0.002594	-0.007019
